<?xml version="1.0" encoding="UTF-8" standalone="no" ?>
<!DOCTYPE svg PUBLIC "-//W3C//DTD SVG 1.1//EN" "http://www.w3.org/Graphics/SVG/1.1/DTD/svg11.dtd">
<svg xmlns="http://www.w3.org/2000/svg" xmlns:xlink="http://www.w3.org/1999/xlink" version="1.1" width="1080" height="1080" viewBox="0 0 1080 1080" xml:space="preserve">
<desc>Created with Fabric.js 5.2.4</desc>
<defs>
</defs>
<g transform="matrix(1 0 0 1 540 540)" id="3c8cd70b-4999-4d68-af16-94ea7d7e46c0"  >
<rect style="stroke: none; stroke-width: 1; stroke-dasharray: none; stroke-linecap: butt; stroke-dashoffset: 0; stroke-linejoin: miter; stroke-miterlimit: 4; fill: rgb(255,255,255); fill-rule: nonzero; opacity: 1; visibility: hidden;" vector-effect="non-scaling-stroke"  x="-540" y="-540" rx="0" ry="0" width="1080" height="1080" />
</g>
<g transform="matrix(1 0 0 1 540 540)" id="97f809b2-868a-4bdf-bbaf-354a11125662"  >
</g>
<g transform="matrix(NaN NaN NaN NaN 0 0)"  >
<g style=""   >
</g>
</g>
<g transform="matrix(4.06 -0.97 0.97 4.06 575.35 573.61)" id="be7f8711-73cd-4b2f-86ea-afa7162c9080"  >
<path style="stroke: rgb(0,0,0); stroke-width: 0; stroke-dasharray: none; stroke-linecap: butt; stroke-dashoffset: 0; stroke-linejoin: miter; stroke-miterlimit: 4; fill: rgb(255,255,255); fill-rule: nonzero; opacity: 1;" vector-effect="non-scaling-stroke"  transform=" translate(-170.82, -170.19)" d="M 110.91143 241.043243 C 98.208076 228.212372 94.327316 212.81398 96.809921 195.827316 C 98.094582 187.037338 93.085144 180.701447 89.900276 172.780991 C 89.288628 174.850555 88.806 176.474411 88.329025 178.099915 C 87.822487 179.826141 87.618027 182.04425 85.15406 181.80484 C 83.065758 181.601913 82.041878 179.747742 81.843826 177.893402 C 80.77771 167.911789 80.348419 157.968109 85.013588 148.591812 C 85.522949 147.568069 85.969131 146.512924 86.620926 145.086502 C 83.935112 144.718475 82.78698 146.347855 81.455658 147.692368 C 75.804382 153.399628 71.947151 160.045746 70.563477 168.043457 C 70.290039 169.623962 70.27845 171.721436 68.116798 171.88562 C 65.636909 172.073944 64.599144 170.027756 64.183052 168.065125 C 60.791904 152.069519 64.078156 128.474838 81.132591 116.464058 C 85.468056 113.410759 90.065971 110.730133 94.573067 107.859306 C 91.929367 105.215958 82.130188 104.234283 72.712944 105.670479 C 65.195511 106.816925 57.697231 108.08889 49.817554 109.365562 C 49.246368 105.855911 50.92231 103.978477 52.970974 102.226486 C 67.247177 90.017677 83.814201 85.309143 102.435089 86.476448 C 109.257835 86.904152 116.057793 86.760231 122.592026 89.205208 C 125.342537 90.234398 127.283226 88.093941 129.443222 86.970871 C 144.532974 79.125046 160.218079 73.413589 177.558807 74.12252 C 184.775452 74.417564 191.618332 76.585876 198.182617 79.505188 C 211.188431 85.289207 222.990952 93.014618 233.866119 102.156158 C 236.903 104.708908 239.694214 107.553879 242.484756 110.158958 C 243.685028 110.078674 244.295319 109.425682 244.396454 108.591774 C 245.445068 99.946724 248.716599 91.880089 250.906937 83.535347 C 252.530212 77.350998 255.111343 76.720619 259.928253 80.927597 C 268.920013 88.780792 274.948914 99.032906 282.639404 108.574997 C 276.352112 115.335541 270.168427 121.984673 263.538086 129.11409 C 267.112396 129.796799 269.837524 128.635803 272.511658 127.774422 C 277.599274 126.135635 282.779388 125.031372 288.065582 124.322739 C 289.525574 124.127029 291.261841 123.262527 291.838287 125.310165 C 292.306885 126.97464 290.910034 128.079376 289.590485 128.835022 C 284.537598 131.728531 279.384827 134.451462 274.38208 137.427567 C 269.517517 140.321487 264.803894 143.468185 259.997467 146.461304 C 258.138824 147.618774 257.112579 149.008881 257.493103 151.382828 C 260.108093 167.697723 256.117737 182.760742 248.25766 196.901077 C 243.558823 205.354263 237.755463 213.051575 231.05986 220.126297 C 224.778336 226.763504 219.066711 233.93692 212.986984 240.770004 C 210.83876 243.184448 211.132111 245.39151 212.395279 248.068649 C 214.277191 252.057098 217.415222 255.495834 218.100311 260.223145 C 215.547485 261.899841 213.183487 261.538605 210.989182 260.133972 C 202.875519 254.94014 195.172913 254.158737 186.020737 258.914032 C 175.95929 264.141754 164.364456 265.270905 153.093597 266.229248 C 143.427292 267.051117 135.346558 262.031525 127.696281 257.081635 C 121.294884 252.939774 115.744919 247.53186 110.91143 241.043243 M 189.614136 189.429657 C 189.224945 188.588242 189.322433 187.345093 187.754883 187.333527 C 185.266556 189.728149 183.973206 193.114731 181.721405 195.720047 C 177.729507 200.338593 174.612885 204.827545 179.402252 210.708618 C 179.490204 210.81662 179.149673 211.273544 178.990204 211.607162 C 177.353149 212.817703 175.695953 212.050659 174.355759 211.207611 C 170.268707 208.636627 166.497818 208.821716 162.249969 211.142624 C 159.357376 212.723038 155.860092 213.410217 152.518036 211.098358 C 159.010269 204.411102 159.009964 204.411484 151.449188 198.55864 C 151.054031 198.252762 150.674759 197.926422 150.282074 197.617249 C 140.502396 189.917862 134.550568 179.994583 133.134384 167.048386 C 129.405136 176.283295 132.708694 185.648254 130.331284 194.535675 C 125.186317 187.60936 127.099945 179.515106 126.129539 171.939713 C 124.593666 178.044525 122.45488 183.815201 120.467659 189.630493 C 119.657898 192.000153 118.08197 193.324615 116.202751 190.887238 C 112.982307 186.71019 109.290695 182.720505 108.663239 177.060455 C 108.273354 173.543488 107.657005 170.05159 107.00943 165.644104 C 98.797646 182.723343 99.136551 199.905472 100.607605 217.197891 C 100.782722 219.256393 102.254692 220.820221 104.382378 221.457947 C 117.907944 225.511948 131.278244 230.233551 145.002655 233.437637 C 163.245056 237.696518 181.772552 240.728104 200.15535 244.398346 C 202.903229 244.946976 204.576309 243.685104 206.281479 241.988464 C 212.460022 235.84082 217.907562 229.054794 222.094284 221.457855 C 226.4142 213.619263 226.907516 205.215454 223.89389 196.109528 C 219.849548 201.976105 225.228806 207.430801 223.461227 213.335251 C 213.967804 209.333023 211.510178 200.352859 206.482269 192.430298 C 203.98555 200.250885 206.636307 207.697433 204.654465 214.748749 C 198.483215 212.206711 194.614838 205.613693 189.614136 189.429657 M 135.09108 256.292267 C 138.944046 258.889923 142.847336 261.346222 147.92421 260.915771 C 150.579239 254.515305 150.265335 247.632965 151.467941 241.035751 C 151.805939 239.181564 150.371384 238.497726 148.680664 238.326782 C 147.20993 238.178101 145.70636 238.073578 144.293961 237.676697 C 137.684601 235.819427 137.69696 235.786514 135.794754 242.613953 C 135.439987 243.88736 134.810577 245.135773 134.726883 246.422958 C 134.523407 249.552155 131.83963 252.648788 135.09108 256.292267 M 154.353867 245.86557 C 153.809998 249.614166 153.338287 253.375214 152.694519 257.106567 C 152.323486 259.257172 152.134232 261.013763 154.948959 261.611969 C 162.828522 263.286652 168.15239 259.400482 168.707489 251.446259 C 169.340378 242.377167 169.301727 242.580093 160.308456 240.866699 C 156.396622 240.121429 154.619446 241.164246 154.353867 245.86557 M 119.864334 233.521576 C 117.880386 243.125061 120.45269 248.097458 129.218033 251.386948 C 131.094833 249.330093 131.050385 246.552704 131.69165 244.071457 C 134.670837 232.544098 135.520554 235.289444 124.225662 231.255783 C 123.602615 231.033264 122.972275 230.780411 122.324455 230.68808 C 120.73513 230.461578 120.442116 231.674622 119.864334 233.521576 M 173.627975 258.047852 C 183.246063 255.929153 184.357315 254.734039 184.864304 245.926758 C 182.269745 244.130051 179.11174 244.608521 176.249329 243.874619 C 174.871338 243.521301 173.620178 244.302704 173.642441 245.508438 C 173.718094 249.606125 171.154526 253.567413 173.627975 258.047852 M 169.355774 181.195389 C 169.79924 184.439758 168.25676 188.016525 170.786469 191.114594 C 175.327545 185.511292 176.318375 171.414444 172.433456 167.079727 C 170.140579 171.310913 169.261642 175.722412 169.355774 181.195389 M 108.769524 226.450668 C 107.823479 226.332687 106.877434 226.214706 105.190514 226.004333 C 108.00779 230.87262 111.283485 234.429184 115.076454 238.614517 C 115.543571 236.387161 115.616211 235.210709 116.038116 234.176819 C 117.628754 230.278915 116.057907 228.310089 112.243958 227.518311 C 111.287735 227.319809 110.374275 226.915344 108.769524 226.450668 M 190.83606 246.099548 C 188.366623 247.898163 188.494659 250.396866 188.69194 253.326477 C 192.536179 252.348785 195.602463 250.881378 198.110382 247.963959 C 195.750626 246.815842 193.685043 246.259415 190.83606 246.099548 z" stroke-linecap="round" />
</g>
</svg>