<svg version="1.1" id="Layer_1" xmlns="http://www.w3.org/2000/svg" xmlns:xlink="http://www.w3.org/1999/xlink" x="0px" y="0px"
	 width="100%" viewBox="0 0 496 496" enable-background="new 0 0 496 496" xml:space="preserve">
<path fill="#FFFFFF" opacity="1.000000" stroke="none" 
	d="
M205.067001,447.191101 
	C187.319077,442.729736 170.534576,436.869080 154.875443,428.120972 
	C152.281433,426.671783 149.981522,426.677002 147.300201,427.584656 
	C124.601807,435.268280 101.865166,442.838928 79.168022,450.526245 
	C64.064232,455.641754 51.479950,448.807526 49.063309,433.966736 
	C48.193882,428.627533 50.527176,423.788330 52.109768,418.952484 
	C58.940857,398.079132 65.950188,377.262695 73.097572,356.495422 
	C74.547432,352.282745 74.555077,348.774292 72.356674,344.698944 
	C61.266472,324.140106 54.062561,302.177887 51.004997,279.058899 
	C43.140568,219.594025 58.115749,166.402817 96.754662,120.437729 
	C126.121582,85.502693 163.441849,62.987286 208.182510,53.564583 
	C260.459137,42.554760 309.665100,50.981270 355.583862,78.392479 
	C358.106842,79.898575 360.368561,82.003502 364.410431,82.643600 
	C368.114502,56.529625 371.800934,30.539783 375.662720,3.313892 
	C400.436218,15.652373 424.290161,27.532885 449.337891,40.007954 
	C434.147675,55.359894 419.709473,69.951790 404.738464,85.082161 
	C407.230194,85.318298 408.698090,84.397850 410.223053,83.766975 
	C411.915497,83.066795 413.615875,82.384674 415.295746,81.655357 
	C423.696686,78.008049 432.095245,74.355255 440.488068,70.689323 
	C445.258301,68.605705 450.225464,67.203064 455.417236,66.941780 
	C457.517548,66.836082 460.016205,67.063164 461.114807,69.261078 
	C462.334473,71.701187 460.946350,73.757530 459.222321,75.490440 
	C455.890350,78.839630 451.978668,81.344879 447.664215,83.228104 
	C431.334686,90.355759 414.995209,97.460693 398.674042,104.607430 
	C397.038971,105.323402 395.134857,105.645058 394.012390,107.303070 
	C394.017090,109.451607 395.741180,110.473427 396.944641,111.753342 
	C425.738739,142.375977 443.850067,178.441589 449.925873,219.958511 
	C458.830872,280.808258 443.491974,335.268066 403.520905,382.185699 
	C373.304779,417.653015 334.831757,439.714783 289.188416,448.850708 
	C261.257233,454.441315 233.269760,453.703888 205.067001,447.191101 
M306.633484,401.101898 
	C329.998627,392.101532 350.649048,378.944916 367.625671,360.445679 
	C402.290894,322.671387 416.313965,278.124359 409.254730,227.463074 
	C405.612274,201.322891 395.870575,177.509094 380.057007,155.757507 
	C343.887909,106.006760 277.285217,80.050308 217.065567,93.809418 
	C171.739441,104.165642 136.646393,129.140778 112.638161,168.952377 
	C93.100494,201.350632 86.634064,236.595444 92.043633,274.058441 
	C95.231255,296.133667 102.923775,316.534210 114.440102,335.540161 
	C118.520439,342.274170 119.211311,349.101593 116.504837,356.545868 
	C113.378868,365.143951 110.589508,373.869110 107.841965,382.598267 
	C106.220795,387.748810 103.875381,392.714539 103.092308,398.735352 
	C105.308929,398.075226 107.025047,397.610199 108.711319,397.054596 
	C121.041199,392.992096 133.357727,388.889008 145.693604,384.844879 
	C153.084717,382.421783 160.010635,383.354858 166.754532,387.355194 
	C210.948212,413.569702 257.373840,418.079346 306.633484,401.101898 
z"/>
<path fill="#FFFFFF" opacity="1.000000" stroke="none" 
	d="
M187.352676,311.634094 
	C158.510147,319.648163 131.506348,307.703888 117.378952,286.949829 
	C103.580070,266.678406 101.901749,244.760101 112.584091,222.985382 
	C123.678009,200.371689 142.758804,188.180618 168.180206,187.792908 
	C195.793777,187.371765 215.267288,200.713333 227.381042,225.246948 
	C228.174988,226.854874 229.003525,228.445694 230.086502,230.576859 
	C236.625381,226.078781 242.895569,222.460114 250.911163,222.466827 
	C258.914337,222.473511 265.230225,225.992447 271.864655,230.334549 
	C275.435516,224.350403 277.710785,218.040176 281.879486,212.805527 
	C298.660034,191.734024 320.543396,183.389160 346.551331,189.253372 
	C373.063171,195.231186 390.021271,212.742691 394.874939,239.383469 
	C401.911499,278.005646 374.578796,309.275482 341.339874,313.457275 
	C304.494385,318.092804 273.750214,293.719574 269.473999,256.452576 
	C268.769989,250.317322 269.244568,243.736710 264.137543,238.711151 
	C258.369659,233.035233 251.664368,231.702133 244.405334,234.378937 
	C237.391724,236.965271 233.598083,242.444504 233.243286,250.040207 
	C232.340942,269.358704 225.774185,286.068176 210.766922,298.876129 
	C203.974670,304.672974 196.348740,308.995087 187.352676,311.634094 
z"/>
</svg>